<?xml version="1.0" encoding="utf-8"?>
<!-- Generator: Adobe Illustrator 27.0.0, SVG Export Plug-In . SVG Version: 6.00 Build 0)  -->
<svg version="1.1" id="Layer_1" xmlns="http://www.w3.org/2000/svg" xmlns:xlink="http://www.w3.org/1999/xlink" x="0px" y="0px"
	 viewBox="0 0 15.1 19.8" style="enable-background:new 0 0 15.1 19.8;" xml:space="preserve">
<style type="text/css">
	.st0{fill:#4285F4;}
	.st1{fill:#F4B400;}
	.st2{fill:none;}
	.st3{fill:#34A853;}
	.st4{fill:#EA4335;}
</style>
<path class="st0" d="M9.7,1.4C9.1,0.8,8.4,0.5,7.6,0.5S6.1,0.8,5.5,1.4S4.6,2.7,4.6,3.5v6c0,0.8,0.3,1.5,0.9,2.1s1.3,0.9,2.1,0.9
	s1.5-0.3,2.1-0.9s0.9-1.3,0.9-2.1v-6C10.6,2.7,10.3,1.9,9.7,1.4z"/>
<path class="st1" d="M2.6,9.5h-2c0,1.5,0.4,2.8,1.2,4l1.7-1C2.9,11.6,2.6,10.6,2.6,9.5z"/>
<path class="st2" d="M8.7,16.4c0.3,0,0.5-0.1,0.6-0.1C9,16.3,8.9,16.4,8.7,16.4z"/>
<path class="st3" d="M6.6,16.4C6.6,16.4,6.6,16.4,6.6,16.4l0,3.1h2v-3.1c0,0,0,0,0.1,0c-0.3,0-0.6,0.1-1.1,0.1
	C7.2,16.5,6.9,16.4,6.6,16.4z"/>
<path class="st4" d="M9.3,16.3C9.3,16.3,9.3,16.3,9.3,16.3c1.4-0.3,2.6-1,3.6-2.2c1.1-1.3,1.7-2.8,1.7-4.6h-2c0,1.4-0.5,2.6-1.5,3.5
	c-1,1-2.2,1.5-3.5,1.5S5,14,4.1,13c-0.2-0.2-0.3-0.4-0.5-0.6l-1.7,1c0.1,0.2,0.3,0.4,0.5,0.6c1.1,1.3,2.6,2.1,4.3,2.3
	c0.3,0,0.6,0.1,1,0.1c0.4,0,0.8,0,1.1-0.1C8.9,16.4,9,16.3,9.3,16.3C9.3,16.3,9.3,16.3,9.3,16.3z"/>
</svg>
