<svg xmlns="http://www.w3.org/2000/svg" width="84" height="84" viewBox="0 0 84 84">
  <g id="그룹_157" data-name="그룹 157" transform="translate(23558 -2010)">
    <rect id="사각형_326" data-name="사각형 326" width="84" height="84" rx="10" transform="translate(-23558 2010)" fill="#fff"/>
    <path id="패스_119" data-name="패스 119" d="M46.627,58.109,48.841,55.9,59.63,45.106l2.214-2.214.508-.508a7.72,7.72,0,0,0,0-10.917l-3.53-3.529-8.181,8.18,3.73,3.73L43.583,50.637l-3.73-3.73-8.181,8.18,3.53,3.53a7.719,7.719,0,0,0,10.917,0Z" transform="translate(-23556.352 2014.427)" fill="#e85400"/>
    <path id="패스_120" data-name="패스 120" d="M46.627,58.109,48.841,55.9,59.63,45.106l2.214-2.214.508-.508a7.72,7.72,0,0,0,0-10.917l-3.53-3.529-8.181,8.18,3.73,3.73L43.583,50.637l-3.73-3.73-8.181,8.18,3.53,3.53a7.719,7.719,0,0,0,10.917,0Z" transform="translate(-23556.352 2014.427)" fill="none" stroke="#5e3f36" stroke-linecap="round" stroke-linejoin="round" stroke-width="1"/>
    <path id="패스_121" data-name="패스 121" d="M27.372,14.311a13.061,13.061,0,1,0-15.8,12.768l2.74,6.044,2.74-6.044A13.062,13.062,0,0,0,27.372,14.311" transform="translate(-23541.512 2027.445)" fill="#fff"/>
    <path id="패스_122" data-name="패스 122" d="M27.372,14.311a13.061,13.061,0,1,0-15.8,12.768l2.74,6.044,2.74-6.044A13.062,13.062,0,0,0,27.372,14.311Z" transform="translate(-23541.512 2027.445)" fill="none" stroke="#5e3f36" stroke-linecap="round" stroke-linejoin="round" stroke-width="1"/>
    <line id="선_15" data-name="선 15" x2="0.808" transform="translate(-23532.625 2041.778)" fill="#fff"/>
    <line id="선_17" data-name="선 17" x2="0.808" transform="translate(-23527.605 2041.778)" fill="#fff"/>
    <rect id="사각형_270" data-name="사각형 270" width="3.585" height="1.537" rx="0.768" transform="translate(-23534.439 2041.244)" fill="#5e3f36"/>
    <rect id="사각형_271" data-name="사각형 271" width="3.585" height="1.537" rx="0.768" transform="translate(-23529.316 2041.244)" fill="#5e3f36"/>
    <rect id="사각형_272" data-name="사각형 272" width="3.585" height="1.537" rx="0.768" transform="translate(-23524.195 2041.244)" fill="#5e3f36"/>
  </g>
</svg>
