<svg xmlns="http://www.w3.org/2000/svg" width="84" height="84" viewBox="0 0 84 84">
  <g id="그룹_159" data-name="그룹 159" transform="translate(22842 -2010)">
    <rect id="사각형_330" data-name="사각형 330" width="84" height="84" rx="10" transform="translate(-22842 2010)" fill="#fff"/>
    <path id="패스_123" data-name="패스 123" d="M24.121,47.477H4.914A3.664,3.664,0,0,1,1.25,43.813V4.914A3.664,3.664,0,0,1,4.914,1.25H24.121a3.664,3.664,0,0,1,3.664,3.664v38.9a3.664,3.664,0,0,1-3.664,3.664" transform="translate(-22816.063 2027.637)" fill="#e85400"/>
    <rect id="사각형_257" data-name="사각형 257" width="26.535" height="46.227" rx="4" transform="translate(-22814.813 2028.887)" fill="none" stroke="#5e3f36" stroke-linecap="round" stroke-linejoin="round" stroke-width="1"/>
    <rect id="사각형_258" data-name="사각형 258" width="26.535" height="35.664" transform="translate(-22814.813 2034.169)" fill="#fff"/>
    <rect id="사각형_259" data-name="사각형 259" width="26.535" height="35.664" transform="translate(-22814.813 2034.169)" fill="none" stroke="#5e3f36" stroke-linecap="round" stroke-linejoin="round" stroke-width="1"/>
    <path id="패스_124" data-name="패스 124" d="M23.45,43.283H15.085a4.1,4.1,0,1,1,0-8.2H23.45a4.1,4.1,0,1,1,0,8.2" transform="translate(-22820.809 2011.131)" fill="#e85400"/>
    <path id="패스_125" data-name="패스 125" d="M23.45,43.283H15.085a4.1,4.1,0,1,1,0-8.2H23.45a4.1,4.1,0,1,1,0,8.2Z" transform="translate(-22820.809 2011.131)" fill="none" stroke="#5e3f36" stroke-linecap="round" stroke-linejoin="round" stroke-width="1"/>
    <path id="패스_126" data-name="패스 126" d="M44.31,44.187l-3.545,3.545L36.732,43.7a2.083,2.083,0,1,0-2.946,2.946l4.034,4.033,1.723,1.734h-1.7a2.083,2.083,0,0,0,0,4.166h5.871l1.965,1.965,1.949-1.949,5.124-5.125-4.092-6.78Z" transform="translate(-22831.635 2007.228)" fill="#fff"/>
    <path id="패스_127" data-name="패스 127" d="M44.31,44.187l-3.545,3.545L36.732,43.7a2.083,2.083,0,1,0-2.946,2.946l4.034,4.033,1.723,1.734h-1.7a2.083,2.083,0,0,0,0,4.166h5.871l1.965,1.965,1.949-1.949,5.124-5.125-4.092-6.78Z" transform="translate(-22831.635 2007.228)" fill="none" stroke="#5e3f36" stroke-linecap="round" stroke-linejoin="round" stroke-width="1"/>
    <rect id="사각형_260" data-name="사각형 260" width="10.003" height="4.004" transform="translate(-22785.959 2065.772) rotate(-45)" fill="#e85400"/>
    <rect id="사각형_261" data-name="사각형 261" width="10.003" height="4.004" transform="translate(-22785.959 2065.772) rotate(-45)" fill="none" stroke="#5e3f36" stroke-linecap="round" stroke-linejoin="round" stroke-width="1"/>
  </g>
</svg>
