<svg xmlns="http://www.w3.org/2000/svg" width="96" height="24" viewBox="0 0 96 24">
  <g id="그룹_390" data-name="그룹 390" transform="translate(-590 -5053)">
    <g id="그룹_389" data-name="그룹 389" transform="translate(-940 113)">
      <path id="corporate_fare_FILL0_wght400_GRAD0_opsz24" d="M80-822v-18H90v4h10v14Zm2-2h6v-2H82Zm0-4h6v-2H82Zm0-4h6v-2H82Zm0-4h6v-2H82Zm8,12h8v-10H90Zm2-6v-2h4v2Zm0,4v-2h4v2Z" transform="translate(1524 5783)" fill="#fff"/>
      <rect id="사각형_317" data-name="사각형 317" width="24" height="24" transform="translate(1602 4940)" fill="none"/>
    </g>
    <g id="그룹_387" data-name="그룹 387" transform="translate(21019 4251)">
      <path id="language_FILL0_wght400_GRAD0_opsz24" d="M90-860a9.677,9.677,0,0,1-3.875-.787,10.144,10.144,0,0,1-3.187-2.15,10.143,10.143,0,0,1-2.15-3.187A9.676,9.676,0,0,1,80-870a9.649,9.649,0,0,1,.787-3.888,10.183,10.183,0,0,1,2.15-3.175,10.144,10.144,0,0,1,3.188-2.15A9.677,9.677,0,0,1,90-880a9.649,9.649,0,0,1,3.887.787,10.184,10.184,0,0,1,3.175,2.15,10.183,10.183,0,0,1,2.15,3.175A9.649,9.649,0,0,1,100-870a9.676,9.676,0,0,1-.787,3.875,10.143,10.143,0,0,1-2.15,3.188,10.184,10.184,0,0,1-3.175,2.15A9.649,9.649,0,0,1,90-860Zm0-2.05a12.7,12.7,0,0,0,1.125-1.875A11.838,11.838,0,0,0,91.9-866H88.1a11.838,11.838,0,0,0,.775,2.075A12.7,12.7,0,0,0,90-862.05Zm-2.6-.4a13.861,13.861,0,0,1-.787-1.712A14.682,14.682,0,0,1,86.05-866H83.1a8.3,8.3,0,0,0,1.813,2.175A7.2,7.2,0,0,0,87.4-862.45Zm5.2,0a7.2,7.2,0,0,0,2.488-1.375A8.3,8.3,0,0,0,96.9-866H93.95a14.682,14.682,0,0,1-.562,1.838A13.861,13.861,0,0,1,92.6-862.45ZM82.25-868h3.4q-.075-.5-.113-.987T85.5-870q0-.525.037-1.013T85.65-872h-3.4a8.555,8.555,0,0,0-.187.987A7.961,7.961,0,0,0,82-870a7.961,7.961,0,0,0,.063,1.013A8.555,8.555,0,0,0,82.25-868Zm5.4,0h4.7q.075-.5.113-.987T92.5-870q0-.525-.037-1.013T92.35-872h-4.7q-.075.5-.113.987T87.5-870q0,.525.037,1.013T87.65-868Zm6.7,0h3.4a8.555,8.555,0,0,0,.188-.987A7.959,7.959,0,0,0,98-870a7.959,7.959,0,0,0-.062-1.013A8.555,8.555,0,0,0,97.75-872h-3.4q.075.5.113.987T94.5-870q0,.525-.037,1.013T94.35-868Zm-.4-6H96.9a8.3,8.3,0,0,0-1.812-2.175A7.2,7.2,0,0,0,92.6-877.55a13.861,13.861,0,0,1,.787,1.712A14.682,14.682,0,0,1,93.95-874Zm-5.85,0h3.8a11.838,11.838,0,0,0-.775-2.075A12.7,12.7,0,0,0,90-877.95a12.7,12.7,0,0,0-1.125,1.875A11.838,11.838,0,0,0,88.1-874Zm-5,0h2.95a14.682,14.682,0,0,1,.563-1.838,13.861,13.861,0,0,1,.787-1.712,7.2,7.2,0,0,0-2.488,1.375A8.3,8.3,0,0,0,83.1-874Z" transform="translate(-20483 1684)" fill="#fff"/>
      <rect id="사각형_320" data-name="사각형 320" width="24" height="24" transform="translate(-20405 802)" fill="none"/>
    </g>
    <g id="그룹_386" data-name="그룹 386" transform="translate(20990 4332)">
      <path id="database_FILL0_wght400_GRAD0_opsz24" d="M130-820a17.423,17.423,0,0,1-7.1-1.292q-2.9-1.292-2.9-3.153v-11.111q0-1.833,2.931-3.139A17.3,17.3,0,0,1,130-840a17.3,17.3,0,0,1,7.069,1.306Q140-837.389,140-835.556v11.111q0,1.861-2.9,3.153A17.423,17.423,0,0,1,130-820Zm0-13.306a18.17,18.17,0,0,0,4.972-.708q2.5-.708,2.806-1.514-.306-.806-2.792-1.528a17.8,17.8,0,0,0-4.986-.722,17.633,17.633,0,0,0-4.958.708q-2.431.708-2.819,1.542.389.833,2.819,1.528A17.962,17.962,0,0,0,130-833.306Zm0,5.528a22.049,22.049,0,0,0,2.25-.111,19.771,19.771,0,0,0,2.069-.319,15.127,15.127,0,0,0,1.861-.514,11.052,11.052,0,0,0,1.6-.694v-3.333a11.052,11.052,0,0,1-1.6.694,15.127,15.127,0,0,1-1.861.514,19.771,19.771,0,0,1-2.069.319,22.067,22.067,0,0,1-2.25.111q-1.167,0-2.278-.111a19.578,19.578,0,0,1-2.1-.319,14.461,14.461,0,0,1-1.847-.514,10.081,10.081,0,0,1-1.556-.694v3.333a10.081,10.081,0,0,0,1.556.694,14.461,14.461,0,0,0,1.847.514,19.578,19.578,0,0,0,2.1.319Q128.833-827.778,130-827.778Zm0,5.556a17.8,17.8,0,0,0,2.6-.194,18.647,18.647,0,0,0,2.431-.514,9.536,9.536,0,0,0,1.861-.722,1.722,1.722,0,0,0,.889-.819v-2.722a11.052,11.052,0,0,1-1.6.694,15.127,15.127,0,0,1-1.861.514,19.771,19.771,0,0,1-2.069.319,22.05,22.05,0,0,1-2.25.111q-1.167,0-2.278-.111a19.578,19.578,0,0,1-2.1-.319,14.461,14.461,0,0,1-1.847-.514,10.081,10.081,0,0,1-1.556-.694v2.75a1.669,1.669,0,0,0,.875.806,9.786,9.786,0,0,0,1.847.708,18.552,18.552,0,0,0,2.444.514A18.081,18.081,0,0,0,130-822.222Z" transform="translate(-20518 1563)" fill="#fff"/>
      <rect id="사각형_319" data-name="사각형 319" width="24" height="24" transform="translate(-20400 721)" fill="none"/>
    </g>
    <g id="그룹_388" data-name="그룹 388" transform="translate(20944 4227)">
      <path id="view_in_ar_FILL0_wght400_GRAD0_opsz24" d="M89-862.525,84-865.4a1.987,1.987,0,0,1-.738-.725,1.948,1.948,0,0,1-.262-1v-5.75a1.948,1.948,0,0,1,.262-1A1.987,1.987,0,0,1,84-874.6l5-2.875a1.966,1.966,0,0,1,1-.275,1.966,1.966,0,0,1,1,.275l5,2.875a1.987,1.987,0,0,1,.738.725,1.948,1.948,0,0,1,.262,1v5.75a1.948,1.948,0,0,1-.262,1A1.987,1.987,0,0,1,96-865.4l-5,2.875a1.966,1.966,0,0,1-1,.275A1.966,1.966,0,0,1,89-862.525Zm0-2.3v-4.6l-4-2.325v4.625Zm2,0,4-2.3v-4.625l-4,2.325ZM80-875v-3a1.926,1.926,0,0,1,.588-1.412A1.926,1.926,0,0,1,82-880h3v2H82v3Zm5,15H82a1.926,1.926,0,0,1-1.412-.588A1.926,1.926,0,0,1,80-862v-3h2v3h3Zm10,0v-2h3v-3h2v3a1.926,1.926,0,0,1-.588,1.412A1.926,1.926,0,0,1,98-860Zm3-15v-3H95v-2h3a1.926,1.926,0,0,1,1.412.588A1.926,1.926,0,0,1,100-878v3Zm-8,3.85,3.95-2.325L90-875.75l-3.95,2.275ZM90-870.025ZM90-871.15ZM91-869.425ZM89-869.425Z" transform="translate(-20384 1708)" fill="#fff"/>
      <rect id="사각형_321" data-name="사각형 321" width="24" height="24" transform="translate(-20306 826)" fill="none"/>
    </g>
  </g>
</svg>
