<svg xmlns="http://www.w3.org/2000/svg" width="84" height="84" viewBox="0 0 84 84">
  <g id="그룹_158" data-name="그룹 158" transform="translate(23200 -2010)">
    <rect id="사각형_328" data-name="사각형 328" width="84" height="84" rx="10" transform="translate(-23200 2010)" fill="#fff"/>
    <path id="패스_112" data-name="패스 112" d="M25.7,13.477c0,6.753-12.227,21.84-12.227,21.84S1.25,20.229,1.25,13.477a12.227,12.227,0,0,1,24.453,0" transform="translate(-23171.479 2033.717)" fill="#e85400"/>
    <path id="패스_113" data-name="패스 113" d="M25.7,13.477c0,6.753-12.227,21.84-12.227,21.84S1.25,20.229,1.25,13.477a12.227,12.227,0,0,1,24.453,0Z" transform="translate(-23171.479 2033.717)" fill="none" stroke="#5e3f36" stroke-linecap="round" stroke-linejoin="round" stroke-width="1"/>
    <path id="패스_114" data-name="패스 114" d="M25.34,20.749a4.591,4.591,0,1,1-4.591-4.591,4.591,4.591,0,0,1,4.591,4.591" transform="translate(-23178.75 2026.445)" fill="#fff"/>
    <circle id="타원_35" data-name="타원 35" cx="4.591" cy="4.591" r="4.591" transform="translate(-23162.592 2042.603)" fill="none" stroke="#5e3f36" stroke-linecap="round" stroke-linejoin="round" stroke-width="1"/>
    <path id="패스_135" data-name="패스 135" d="M502.377,2.917l.2-2.74A.166.166,0,0,0,502.407,0H501.07a.166.166,0,0,0-.158.177l.185,2.74-2.539-1.025a.158.158,0,0,0-.219.1l-.415,1.276a.158.158,0,0,0,.117.211l2.668.661-1.776,2.1a.158.158,0,0,0,.028.24l1.085.788a.158.158,0,0,0,.238-.046l1.452-2.331,1.452,2.332a.166.166,0,0,0,.238.047l1.086-.788a.167.167,0,0,0,.028-.241l-1.771-2.1,2.67-.665a.158.158,0,0,0,.117-.211l-.413-1.272a.158.158,0,0,0-.219-.1Z" transform="translate(-23643.688 2027.667)" fill="#ed6c00"/>
  </g>
</svg>
