<svg xmlns="http://www.w3.org/2000/svg" xmlns:xlink="http://www.w3.org/1999/xlink" width="84" height="84" viewBox="0 0 84 84">
  <defs>
    <clipPath id="clip-path">
      <rect id="사각형_254" data-name="사각형 254" width="40.141" height="38.462" transform="translate(0 0)" fill="none"/>
    </clipPath>
  </defs>
  <g id="그룹_154" data-name="그룹 154" transform="translate(23200 -1656)">
    <rect id="사각형_327" data-name="사각형 327" width="84" height="84" rx="10" transform="translate(-23200 1656)" fill="#fff"/>
    <rect id="사각형_252" data-name="사각형 252" width="38.86" height="29.411" transform="translate(-23177.428 1679.641)" fill="#e85400"/>
    <g id="그룹_95" data-name="그룹 95" transform="translate(-23178.07 1679.001)" clip-path="url(#clip-path)">
      <rect id="사각형_253" data-name="사각형 253" width="38.86" height="29.411" transform="translate(0.64 0.64)" fill="none" stroke="#5e3f36" stroke-linecap="round" stroke-linejoin="round" stroke-width="1"/>
    </g>
    <g id="그룹_97" data-name="그룹 97" transform="translate(-23178.07 1679.001)" clip-path="url(#clip-path)">
      <line id="선_14" data-name="선 14" x2="38.86" transform="translate(0.64 35.895)" fill="none" stroke="#5e3f36" stroke-linecap="round" stroke-linejoin="round" stroke-width="1"/>
      <path id="패스_116" data-name="패스 116" d="M57.018,68.246a1.927,1.927,0,1,1-1.927-1.927,1.927,1.927,0,0,1,1.927,1.927" transform="translate(-25.934 -32.351)" fill="#e85400"/>
      <circle id="타원_36" data-name="타원 36" cx="1.927" cy="1.927" r="1.927" transform="translate(27.23 33.968)" fill="none" stroke="#5e3f36" stroke-linecap="round" stroke-linejoin="round" stroke-width="1"/>
      <path id="패스_117" data-name="패스 117" d="M43.072,23.743,31.833,17.254V30.232Z" transform="translate(-15.528 -8.417)" fill="#fff"/>
      <path id="패스_118" data-name="패스 118" d="M43.072,23.743,31.833,17.254V30.232Z" transform="translate(-15.528 -8.417)" fill="none" stroke="#5e3f36" stroke-linecap="round" stroke-linejoin="round" stroke-width="1"/>
    </g>
  </g>
</svg>
