<svg xmlns="http://www.w3.org/2000/svg" xmlns:xlink="http://www.w3.org/1999/xlink" width="56" height="56" viewBox="0 0 56 56">
  <defs>
    <clipPath id="clip-path">
      <rect id="사각형_236" data-name="사각형 236" width="36.251" height="33.435" fill="#3b3938"/>
    </clipPath>
  </defs>
  <g id="그룹_328" data-name="그룹 328" transform="translate(-1758 -4429)">
    <circle id="타원_22" data-name="타원 22" cx="28" cy="28" r="28" transform="translate(1758 4429)" fill="#fee712"/>
    <g id="그룹_87" data-name="그룹 87" transform="translate(1767.875 4442.674)">
      <g id="그룹_79" data-name="그룹 79" transform="translate(0 0)" clip-path="url(#clip-path)">
        <path id="패스_110" data-name="패스 110" d="M35.244,9.638a13.866,13.866,0,0,0-4.71-5.747,20.224,20.224,0,0,0-10.4-3.8A22.4,22.4,0,0,0,14.1.358a20.112,20.112,0,0,0-7.486,2.9A15,15,0,0,0,1.457,8.675,11.442,11.442,0,0,0,.142,16.064a12.278,12.278,0,0,0,2.816,6.044,16.679,16.679,0,0,0,5.375,4.2c.137.07.151.133.113.266q-.655,2.27-1.3,4.543c-.171.6-.353,1.2-.484,1.808-.074.347.132.554.481.506a.865.865,0,0,0,.314-.107c.274-.156.552-.305.818-.474,2.191-1.387,4.31-2.879,6.432-4.368a.553.553,0,0,1,.428-.1,21.532,21.532,0,0,0,3.222.194,22.426,22.426,0,0,0,3.53-.308,20.421,20.421,0,0,0,6.935-2.45,15.314,15.314,0,0,0,5.554-5.227,11.4,11.4,0,0,0,.868-10.946M9.328,12.06c-.152,0-.182.047-.182.188q.006,2.962,0,5.924a1.021,1.021,0,0,1-.718,1.051,1.039,1.039,0,0,1-1.376-.995c-.006-1,0-1.993,0-2.99s0-1.981,0-2.971c0-.156-.027-.214-.2-.208-.464.014-.929.007-1.393,0a1.022,1.022,0,1,1-.01-2.044q2.646-.008,5.293,0a1.024,1.024,0,0,1,.287,2.015,1.184,1.184,0,0,1-.313.029c-.464,0-.929.007-1.393,0m8.98,6.476a.665.665,0,0,1-.458.615,1.6,1.6,0,0,1-.654.109.854.854,0,0,1-.866-.62c-.11-.353-.266-.692-.39-1.041a.194.194,0,0,0-.221-.158c-.477.01-.954,0-1.43,0s-.966,0-1.449,0a.175.175,0,0,0-.2.136c-.123.343-.258.681-.389,1.022a.935.935,0,0,1-1.131.651c-.731-.108-.983-.48-.828-1.23a9.083,9.083,0,0,1,.468-1.346q1.058-2.8,2.123-5.595a1.533,1.533,0,0,1,1.172-1.03,1.482,1.482,0,0,1,1.612.975c.394,1.02.778,2.043,1.167,3.065q.655,1.723,1.31,3.446a2.223,2.223,0,0,1,.166,1m4.991.577q-1.764.022-3.529,0a.948.948,0,0,1-.91-.965c0-1.183,0-2.365,0-3.548s0-2.353,0-3.529a1.047,1.047,0,0,1,.96-1.045,1.07,1.07,0,0,1,1.137.785,1.453,1.453,0,0,1,.031.387q0,2.907,0,5.814c0,.165.043.206.205.2q1.022-.014,2.043,0a.969.969,0,0,1,.978.9.953.953,0,0,1-.913,1m7.759-.144a1.038,1.038,0,0,1-1.539-.161c-.728-.955-1.449-1.916-2.172-2.874a.543.543,0,0,0-.056-.074c-.085-.082-.108-.242-.241-.251-.1-.006-.341.364-.341.486,0,.719.005,1.437,0,2.155a1.024,1.024,0,0,1-.862,1,1.041,1.041,0,0,1-1.127-.6,1.07,1.07,0,0,1-.1-.45q0-3.558,0-7.117a1.042,1.042,0,1,1,2.084-.008c.006.681,0,1.362,0,2.044v.143l.063.043a1.205,1.205,0,0,1,.119-.166q1.338-1.342,2.679-2.681a.88.88,0,0,1,1.149-.145,1.017,1.017,0,0,1,.481,1.128.939.939,0,0,1-.261.4c-.732.731-1.461,1.465-2.2,2.191-.1.1-.1.159-.015.267q1.225,1.611,2.439,3.23a1.045,1.045,0,0,1-.108,1.441" transform="translate(0 0)" fill="#3b3938"/>
        <path id="패스_111" data-name="패스 111" d="M35.958,34c-.265.751-.528,1.5-.8,2.253-.045.124-.025.158.108.151.2-.009.409,0,.613,0H37.2l-1.043-2.963-.2.561" transform="translate(-21.87 -20.815)" fill="#3b3938"/>
      </g>
    </g>
  </g>
</svg>
