<svg xmlns="http://www.w3.org/2000/svg" xmlns:xlink="http://www.w3.org/1999/xlink" width="140" height="140" viewBox="0 0 140 140">
  <defs>
    <clipPath id="clip-path">
      <rect id="사각형_344" data-name="사각형 344" width="86.774" height="92.336" transform="translate(0 0)" fill="none"/>
    </clipPath>
  </defs>
  <g id="그룹_385" data-name="그룹 385" transform="translate(20520 24027)">
    <g id="그룹_382" data-name="그룹 382" transform="translate(6.613)">
      <path id="패스_223" data-name="패스 223" d="M511.721,9.024l.6-8.478A.512.512,0,0,0,511.813,0h-4.136a.512.512,0,0,0-.488.546l.571,8.478-7.853-3.171a.488.488,0,0,0-.678.312l-1.283,3.946a.488.488,0,0,0,.361.654l8.253,2.044-5.492,6.483a.488.488,0,0,0,.088.741l3.356,2.439a.488.488,0,0,0,.737-.141l4.492-7.209,4.492,7.214a.512.512,0,0,0,.737.146l3.361-2.439a.517.517,0,0,0,.088-.746L512.94,12.79l8.258-2.058a.488.488,0,0,0,.361-.654l-1.278-3.936a.488.488,0,0,0-.678-.317Z" transform="translate(-20953.527 -23984.615)" fill="#ed6c00"/>
      <g id="그룹_165" data-name="그룹 165" transform="translate(-20495 -23996.813)" opacity="0.599">
        <g id="그룹_164" data-name="그룹 164" clip-path="url(#clip-path)">
          <path id="패스_217" data-name="패스 217" d="M10,92.335a10.009,10.009,0,0,1-10-10V59.783H20V82.338a10.009,10.009,0,0,1-10,10M3.75,63.533v18.8a6.249,6.249,0,0,0,12.5,0v-18.8Z" fill="#1a1311"/>
          <path id="패스_218" data-name="패스 218" d="M75.371,92.336H10v-3.75H75.371a7.662,7.662,0,0,0,7.654-7.653V3.744L19.991,3.75,20,80.54h-3.75V3.744A3.749,3.749,0,0,1,19.991,0h63.04a3.749,3.749,0,0,1,3.744,3.744V80.933a11.416,11.416,0,0,1-11.4,11.4" fill="#1a1311"/>
          <path id="패스_219" data-name="패스 219" d="M50.8,45.394H32a1.875,1.875,0,0,1,0-3.75H50.8a1.875,1.875,0,0,1,0,3.75" fill="#1a1311"/>
          <path id="패스_220" data-name="패스 220" d="M70.414,56.564H32a1.875,1.875,0,0,1,0-3.75H70.414a1.875,1.875,0,0,1,0,3.75" fill="#1a1311"/>
          <path id="패스_221" data-name="패스 221" d="M70.414,67.734H32a1.875,1.875,0,0,1,0-3.75H70.414a1.875,1.875,0,0,1,0,3.75" fill="#1a1311"/>
          <path id="패스_222" data-name="패스 222" d="M60.718,78.9H32a1.875,1.875,0,0,1,0-3.75H60.718a1.875,1.875,0,0,1,0,3.75" fill="#1a1311"/>
        </g>
      </g>
    </g>
    <rect id="사각형_594" data-name="사각형 594" width="140" height="140" transform="translate(-20520 -24027)" fill="none"/>
  </g>
</svg>
