<svg xmlns="http://www.w3.org/2000/svg" xmlns:xlink="http://www.w3.org/1999/xlink" width="140" height="140" viewBox="0 0 140 140">
  <defs>
    <clipPath id="clip-path">
      <rect id="사각형_343" data-name="사각형 343" width="94.112" height="94.142" transform="translate(0 0)" fill="none"/>
    </clipPath>
  </defs>
  <g id="그룹_384" data-name="그룹 384" transform="translate(20928 24027)">
    <g id="그룹_381" data-name="그룹 381" transform="translate(2.944)">
      <path id="패스_216" data-name="패스 216" d="M511.721,9.024l.6-8.478A.512.512,0,0,0,511.813,0h-4.136a.512.512,0,0,0-.488.546l.571,8.478-7.853-3.171a.488.488,0,0,0-.678.312l-1.283,3.946a.488.488,0,0,0,.361.654l8.253,2.044-5.492,6.483a.488.488,0,0,0,.088.741l3.356,2.439a.488.488,0,0,0,.737-.141l4.492-7.209,4.492,7.214a.512.512,0,0,0,.737.146l3.361-2.439a.517.517,0,0,0,.088-.746L512.94,12.79l8.258-2.058a.488.488,0,0,0,.361-.654l-1.278-3.936a.488.488,0,0,0-.678-.317Z" transform="translate(-21365.695 -23961.033)" fill="#ed6c00"/>
      <g id="그룹_163" data-name="그룹 163" transform="translate(-20903 -23996.813)" opacity="0.604">
        <g id="그룹_162" data-name="그룹 162" clip-path="url(#clip-path)">
          <path id="패스_214" data-name="패스 214" d="M47.049,67.749A20.681,20.681,0,1,1,67.73,47.068,20.7,20.7,0,0,1,47.049,67.749m0-37.611A16.931,16.931,0,1,0,63.98,47.068a16.948,16.948,0,0,0-16.931-16.93" fill="#1a1311"/>
          <rect id="사각형_341" data-name="사각형 341" width="34.207" height="3.749" transform="translate(8.348 83.335) rotate(-45)" fill="#1a1311"/>
          <path id="패스_215" data-name="패스 215" d="M54.1,94.142l-3.2-10.867H42.994L39.8,94.113,38.131,93.8a46.86,46.86,0,0,1-17.964-7.489l2.125-3.09a43.121,43.121,0,0,0,14.876,6.548L40.19,79.525H53.714l3.025,10.281a43.629,43.629,0,0,0,13.529-5.552L65.121,74.8l9.561-9.559,9.479,5.152a43.275,43.275,0,0,0,5.607-13.5L79.41,53.829V40.308l10.358-3.054a43.26,43.26,0,0,0-5.607-13.5L74.682,28.9l-9.561-9.56,5.146-9.45A43.613,43.613,0,0,0,56.739,4.336L53.714,14.612H40.19L37.168,4.375A43.052,43.052,0,0,0,23.7,9.994l5.083,9.345L19.221,28.9,9.9,23.821a43.229,43.229,0,0,0-5.563,13.5L14.5,40.307V53.83L4.334,56.824a43.3,43.3,0,0,0,6.492,14.915l-3.1,2.112a46.976,46.976,0,0,1-7.419-18L0,54.191l10.746-3.166V43.113L0,39.952l.309-1.663a46.974,46.974,0,0,1,7.419-18l.955-1.4,9.869,5.376,5.6-5.6L18.777,8.79l1.39-.957A46.86,46.86,0,0,1,38.131.344L39.8.029l3.2,10.833h7.913L54.1,0l1.664.309a47.454,47.454,0,0,1,18.025,7.4l1.411.954-5.45,10.007,5.6,5.6,10.019-5.44.955,1.4A47.063,47.063,0,0,1,93.8,38.216l.312,1.667L83.16,43.112v7.915L94.111,54.26,93.8,55.926a47.068,47.068,0,0,1-7.472,18l-.956,1.4L75.353,69.872l-5.6,5.6,5.45,10.011-1.411.954a47.438,47.438,0,0,1-18.025,7.4Z" fill="#1a1311"/>
        </g>
      </g>
    </g>
    <rect id="사각형_593" data-name="사각형 593" width="140" height="140" transform="translate(-20928 -24027)" fill="none"/>
  </g>
</svg>
