<svg xmlns="http://www.w3.org/2000/svg" xmlns:xlink="http://www.w3.org/1999/xlink" width="140" height="140" viewBox="0 0 140 140">
  <defs>
    <clipPath id="clip-path">
      <rect id="사각형_340" data-name="사각형 340" width="92.421" height="100.518" transform="translate(0 0)" fill="none"/>
    </clipPath>
  </defs>
  <g id="그룹_383" data-name="그룹 383" transform="translate(21336 24027)">
    <g id="그룹_380" data-name="그룹 380" transform="translate(-0.001)">
      <g id="그룹_161" data-name="그룹 161" transform="translate(-21313 -24000)" opacity="0.598">
        <g id="그룹_160" data-name="그룹 160" clip-path="url(#clip-path)">
          <path id="패스_210" data-name="패스 210" d="M67.626,100.518H24.8A24.8,24.8,0,0,1,.068,73.871L4.237,28.636A23.538,23.538,0,0,1,27.617,6.969h37.19a23.547,23.547,0,0,1,23.383,21.7l4.162,45.17a24.8,24.8,0,0,1-24.726,26.68m-40.009-89.8A19.78,19.78,0,0,0,7.974,28.948L3.805,74.183A21.051,21.051,0,0,0,24.8,96.768H67.626A21.047,21.047,0,0,0,88.615,74.15L84.453,28.98A19.79,19.79,0,0,0,64.807,10.719Z" fill="#1a1311"/>
          <path id="패스_211" data-name="패스 211" d="M61.632,10.719H30.792V3.559A3.562,3.562,0,0,1,34.35,0H58.074a3.562,3.562,0,0,1,3.558,3.559Zm-27.09-3.75h23.34V3.75H34.542Z" fill="#1a1311"/>
          <rect id="사각형_337" data-name="사각형 337" width="79.241" height="3.75" transform="translate(6.591 28.404)" fill="#1a1311"/>
          <rect id="사각형_338" data-name="사각형 338" width="88.337" height="3.75" transform="translate(2.213 74.021)" fill="#1a1311"/>
          <path id="패스_212" data-name="패스 212" d="M48.828,62.467H43.6A9.885,9.885,0,0,1,33.723,52.6V47.363A9.884,9.884,0,0,1,43.6,37.491h5.232A9.883,9.883,0,0,1,58.7,47.363V52.6a9.884,9.884,0,0,1-9.873,9.872M43.6,41.241a6.129,6.129,0,0,0-6.123,6.122V52.6A6.129,6.129,0,0,0,43.6,58.717h5.232A6.129,6.129,0,0,0,54.951,52.6V47.363a6.129,6.129,0,0,0-6.123-6.122Z" fill="#1a1311"/>
          <rect id="사각형_339" data-name="사각형 339" width="3.75" height="3.484" transform="translate(44.337 1.876)" fill="#1a1311"/>
        </g>
      </g>
      <path id="패스_213" data-name="패스 213" d="M511.721,9.024l.6-8.478A.512.512,0,0,0,511.813,0h-4.136a.512.512,0,0,0-.488.546l.571,8.478-7.853-3.171a.488.488,0,0,0-.678.312l-1.283,3.946a.488.488,0,0,0,.361.654l8.253,2.044-5.492,6.483a.488.488,0,0,0,.088.741l3.356,2.439a.488.488,0,0,0,.737-.141l4.492-7.209,4.492,7.214a.512.512,0,0,0,.737.146l3.361-2.439a.517.517,0,0,0,.088-.746L512.94,12.79l8.258-2.058a.488.488,0,0,0,.361-.654l-1.278-3.936a.488.488,0,0,0-.678-.317Z" transform="translate(-21730.332 -24022.582)" fill="#ed6c00"/>
    </g>
    <rect id="사각형_592" data-name="사각형 592" width="140" height="140" transform="translate(-21336 -24027)" fill="none"/>
  </g>
</svg>
