<svg xmlns="http://www.w3.org/2000/svg" width="92.2" height="64" viewBox="0 0 92.2 64">
  <g id="그룹_330" data-name="그룹 330" transform="translate(-1665.8 -876)">
    <g id="구성_요소_28_6" data-name="구성 요소 28 – 6" transform="translate(1722 876)">
      <rect id="사각형_226" data-name="사각형 226" width="36" height="64" rx="18" fill="#e85400"/>
      <path id="패스_106" data-name="패스 106" d="M-19434.9-13921.354l6.5,7.486,6.5-7.486" transform="translate(19446.418 13965.488)" fill="none" stroke="#fff" stroke-linecap="round" stroke-linejoin="round" stroke-width="1.5"/>
      <path id="패스_107" data-name="패스 107" d="M-19425-13910.576v-26.518" transform="translate(19443 13962.197)" fill="none" stroke="#fff" stroke-linecap="round" stroke-width="1.5"/>
    </g>
    <path id="패스_534" data-name="패스 534" d="M-11.408-3.008a3.1,3.1,0,0,1-.4,1.544A2.908,2.908,0,0,1-13.024-.32a4.232,4.232,0,0,1-2,.432A5,5,0,0,1-17.088-.3,3.592,3.592,0,0,1-18.544-1.44a3.248,3.248,0,0,1-.624-1.7h1.952a2,2,0,0,0,.632,1.264,2.052,2.052,0,0,0,1.48.528,1.76,1.76,0,0,0,1.288-.448,1.545,1.545,0,0,0,.456-1.152,1.482,1.482,0,0,0-.336-1,2.356,2.356,0,0,0-.832-.616q-.5-.224-1.36-.512a11.853,11.853,0,0,1-1.72-.672,3.128,3.128,0,0,1-1.128-.976A2.8,2.8,0,0,1-19.2-8.4a2.866,2.866,0,0,1,.448-1.6,2.912,2.912,0,0,1,1.28-1.064,4.62,4.62,0,0,1,1.92-.376,4.2,4.2,0,0,1,2.744.832,3.135,3.135,0,0,1,1.16,2.176h-1.968a1.919,1.919,0,0,0-.6-1.1,1.879,1.879,0,0,0-1.336-.456,1.845,1.845,0,0,0-1.232.392,1.394,1.394,0,0,0-.464,1.128,1.418,1.418,0,0,0,.32.952,2.224,2.224,0,0,0,.808.592q.488.216,1.336.5a11.738,11.738,0,0,1,1.752.68,3.174,3.174,0,0,1,1.152,1A2.894,2.894,0,0,1-11.408-3.008Zm4.944-5.92a4.365,4.365,0,0,1,2.832.9A3.9,3.9,0,0,1-2.24-5.568H-4.176a2.07,2.07,0,0,0-.776-1.3A2.464,2.464,0,0,0-6.5-7.344a2.323,2.323,0,0,0-1.76.744,3.064,3.064,0,0,0-.7,2.184,3.094,3.094,0,0,0,.7,2.192,2.311,2.311,0,0,0,1.76.752,2.436,2.436,0,0,0,1.544-.48,2.1,2.1,0,0,0,.776-1.312H-2.24A3.932,3.932,0,0,1-3.632-.8,4.339,4.339,0,0,1-6.464.112,4.6,4.6,0,0,1-8.728-.432,3.869,3.869,0,0,1-10.272-2a4.96,4.96,0,0,1-.56-2.416,4.925,4.925,0,0,1,.56-2.4A3.869,3.869,0,0,1-8.728-8.384,4.6,4.6,0,0,1-6.464-8.928ZM.544-7.088a3.4,3.4,0,0,1,1.28-1.368,3.632,3.632,0,0,1,1.92-.5v1.984H3.2a2.99,2.99,0,0,0-1.928.584A2.331,2.331,0,0,0,.544-4.464V0H-1.28V-8.816H.544Zm7.792-1.84a4.834,4.834,0,0,1,2.3.544,3.9,3.9,0,0,1,1.6,1.568,4.815,4.815,0,0,1,.576,2.4A4.849,4.849,0,0,1,12.24-2a3.9,3.9,0,0,1-1.6,1.568,4.834,4.834,0,0,1-2.3.544,4.787,4.787,0,0,1-2.3-.544,3.956,3.956,0,0,1-1.6-1.576,4.807,4.807,0,0,1-.584-2.408,4.762,4.762,0,0,1,.584-2.4,3.97,3.97,0,0,1,1.6-1.568A4.787,4.787,0,0,1,8.336-8.928Zm0,1.584a2.682,2.682,0,0,0-1.3.32,2.358,2.358,0,0,0-.952.984,3.368,3.368,0,0,0-.36,1.624,3.358,3.358,0,0,0,.36,1.632,2.368,2.368,0,0,0,.952.976,2.682,2.682,0,0,0,1.3.32,2.682,2.682,0,0,0,1.3-.32,2.368,2.368,0,0,0,.952-.976,3.358,3.358,0,0,0,.36-1.632,3.368,3.368,0,0,0-.36-1.624,2.358,2.358,0,0,0-.952-.984A2.682,2.682,0,0,0,8.336-7.344Zm7.264-4.5V0H13.776V-11.84Zm3.232,0V0H17.008V-11.84Z" transform="translate(1685 914)" fill="#fff"/>
  </g>
</svg>
