<svg xmlns="http://www.w3.org/2000/svg" xmlns:xlink="http://www.w3.org/1999/xlink" width="229" height="34" viewBox="0 0 229 34">
  <defs>
    <clipPath id="clip-path">
      <rect id="사각형_179" data-name="사각형 179" width="14.543" height="27.359" transform="translate(0 0)" fill="#3b3938"/>
    </clipPath>
    <clipPath id="clip-path-2">
      <rect id="사각형_180" data-name="사각형 180" width="21.407" height="21.407" transform="translate(0 0)" fill="#3b3938"/>
    </clipPath>
    <clipPath id="clip-path-3">
      <rect id="사각형_181" data-name="사각형 181" width="22.667" height="15.867" transform="translate(0 0)" fill="#3b3938"/>
    </clipPath>
    <clipPath id="clip-path-4">
      <rect id="사각형_182" data-name="사각형 182" width="21.781" height="18.323" fill="#3b3938"/>
    </clipPath>
    <clipPath id="clip-path-5">
      <rect id="사각형_235" data-name="사각형 235" width="19.73" height="19.646" fill="#3b3938"/>
    </clipPath>
    <clipPath id="clip-path-6">
      <rect id="사각형_236" data-name="사각형 236" width="21.921" height="20.218" fill="#3b3938"/>
    </clipPath>
  </defs>
  <g id="그룹_323" data-name="그룹 323" transform="translate(20855 14727)">
    <g id="그룹_317" data-name="그룹 317" transform="translate(-21966 -16280)">
      <circle id="타원_11" data-name="타원 11" cx="17" cy="17" r="17" transform="translate(1189 1553)" fill="#fff"/>
      <g id="그룹_35" data-name="그룹 35" transform="translate(1198.729 1559.641)">
        <g id="그룹_34" data-name="그룹 34" clip-path="url(#clip-path)">
          <path id="패스_59" data-name="패스 59" d="M13.59,15.274l.754-4.914H9.629V7.171A2.457,2.457,0,0,1,12.4,4.516h2.144V.333A26.153,26.153,0,0,0,10.738,0C6.854,0,4.316,2.354,4.316,6.615V10.36H0v4.914H4.316V27.153a17.149,17.149,0,0,0,5.313,0V15.274Z" fill="#3b3938"/>
        </g>
      </g>
    </g>
    <g id="그룹_318" data-name="그룹 318" transform="translate(-21936 -16280)">
      <circle id="타원_9" data-name="타원 9" cx="17" cy="17" r="17" transform="translate(1081 1553)" fill="#fff"/>
      <g id="그룹_37" data-name="그룹 37" transform="translate(1087.297 1559.297)">
        <g id="그룹_36" data-name="그룹 36" clip-path="url(#clip-path-2)">
          <path id="패스_60" data-name="패스 60" d="M10.7,1.929c2.858,0,3.2.011,4.325.062a5.919,5.919,0,0,1,1.988.369,3.317,3.317,0,0,1,1.23.8,3.311,3.311,0,0,1,.8,1.231,5.917,5.917,0,0,1,.369,1.987c.051,1.129.062,1.468.062,4.326s-.011,3.2-.062,4.325a5.911,5.911,0,0,1-.369,1.987,3.549,3.549,0,0,1-2.031,2.032,5.926,5.926,0,0,1-1.988.368c-1.128.052-1.467.063-4.325.063s-3.2-.011-4.325-.063a5.926,5.926,0,0,1-1.988-.368,3.307,3.307,0,0,1-1.23-.8,3.3,3.3,0,0,1-.8-1.231,5.911,5.911,0,0,1-.369-1.987C1.94,13.9,1.929,13.562,1.929,10.7s.011-3.2.062-4.325A5.919,5.919,0,0,1,2.36,4.391a3.311,3.311,0,0,1,.8-1.231,3.317,3.317,0,0,1,1.23-.8,5.919,5.919,0,0,1,1.988-.369c1.128-.051,1.467-.062,4.325-.062M10.7,0C7.8,0,7.433.012,6.291.064a7.846,7.846,0,0,0-2.6.5A5.227,5.227,0,0,0,1.8,1.8,5.25,5.25,0,0,0,.562,3.692a7.876,7.876,0,0,0-.5,2.6C.013,7.432,0,7.8,0,10.7s.013,3.271.065,4.413a7.875,7.875,0,0,0,.5,2.6,5.254,5.254,0,0,0,1.235,1.9,5.238,5.238,0,0,0,1.9,1.234,7.846,7.846,0,0,0,2.6.5c1.142.052,1.506.064,4.413.064s3.271-.012,4.413-.064a7.846,7.846,0,0,0,2.6-.5,5.472,5.472,0,0,0,3.131-3.13,7.875,7.875,0,0,0,.5-2.6c.052-1.142.065-1.506.065-4.413s-.013-3.272-.065-4.413a7.876,7.876,0,0,0-.5-2.6A5.25,5.25,0,0,0,19.611,1.8a5.227,5.227,0,0,0-1.9-1.235,7.846,7.846,0,0,0-2.6-.5C13.975.012,13.611,0,10.7,0" fill="#3b3938"/>
          <path id="패스_61" data-name="패스 61" d="M10.7,5.208a5.5,5.5,0,1,0,5.5,5.5,5.5,5.5,0,0,0-5.5-5.5m0,9.064A3.568,3.568,0,1,1,14.272,10.7,3.568,3.568,0,0,1,10.7,14.272" fill="#3b3938"/>
          <path id="패스_62" data-name="패스 62" d="M17.7,4.99a1.284,1.284,0,1,1-1.284-1.284A1.284,1.284,0,0,1,17.7,4.99" fill="#3b3938"/>
        </g>
      </g>
    </g>
    <g id="그룹_319" data-name="그룹 319" transform="translate(-21951 -16280)">
      <circle id="타원_10" data-name="타원 10" cx="17" cy="17" r="17" transform="translate(1135 1553)" fill="#fff"/>
      <g id="그룹_39" data-name="그룹 39" transform="translate(1140.666 1562.066)">
        <g id="그룹_38" data-name="그룹 38" clip-path="url(#clip-path-3)">
          <path id="패스_63" data-name="패스 63" d="M22.193,2.477a2.837,2.837,0,0,0-2-2C18.422,0,11.334,0,11.334,0S4.246,0,2.478.473a2.841,2.841,0,0,0-2,2A29.48,29.48,0,0,0,0,7.933a29.48,29.48,0,0,0,.474,5.456,2.841,2.841,0,0,0,2,2c1.768.473,8.856.473,8.856.473s7.088,0,8.855-.473a2.837,2.837,0,0,0,2-2,29.48,29.48,0,0,0,.474-5.456,29.48,29.48,0,0,0-.474-5.456M9.067,11.333v-6.8l5.889,3.4Z" fill="#3b3938"/>
        </g>
      </g>
    </g>
    <g id="그룹_320" data-name="그룹 320" transform="translate(-21981 -16280)">
      <circle id="타원_12" data-name="타원 12" cx="17" cy="17" r="17" transform="translate(1243 1553)" fill="#fff"/>
      <g id="그룹_41" data-name="그룹 41" transform="translate(1249.109 1562.381)">
        <g id="그룹_40" data-name="그룹 40" transform="translate(0 0)" clip-path="url(#clip-path-4)">
          <path id="패스_64" data-name="패스 64" d="M22.86,9.65a.857.857,0,1,0,.857.857.856.856,0,0,0-.857-.857" transform="translate(-5.542 -2.43)" fill="#3b3938"/>
          <path id="패스_65" data-name="패스 65" d="M15.994,9.65a.857.857,0,1,0,.857.857.857.857,0,0,0-.857-.857" transform="translate(-3.813 -2.43)" fill="#3b3938"/>
          <path id="패스_66" data-name="패스 66" d="M5.784,9.65a.857.857,0,1,0,.857.857.858.858,0,0,0-.857-.857" transform="translate(-1.241 -2.43)" fill="#3b3938"/>
          <path id="패스_67" data-name="패스 67" d="M18.341,0H3.44A3.446,3.446,0,0,0,0,3.453v8.19A3.446,3.446,0,0,0,3.44,15.1H8.572l1.752,2.852a.63.63,0,0,0,.057.081.586.586,0,0,0,1.016,0,.4.4,0,0,0,.059-.085L13.208,15.1h5.133a3.447,3.447,0,0,0,3.44-3.453V3.453A3.446,3.446,0,0,0,18.341,0M4.837,10.106a1.279,1.279,0,0,1-1.12-.574v.435H2.37V4.412H3.7V6.526A1.774,1.774,0,0,1,4.837,6c1.81,0,1.879,2.031,1.879,2.031a1.965,1.965,0,0,1-1.879,2.073m4.2-3.732V9.967H7.753V6.679c0-1.133-.608-1.106-.608-1.106V4.288c1.949,0,1.894,2.087,1.894,2.087m5.4,1.7c0,2.027-2.254,2.03-2.254,2.03a1.991,1.991,0,0,1-2.2-2.03c0-2.057,2.2-2.057,2.2-2.057a2.025,2.025,0,0,1,2.254,2.057m4.975,1.84A1.936,1.936,0,0,1,17.462,12h-.518V10.818h.321c.943,0,.85-.975.85-.975V9.532a1.523,1.523,0,0,1-1.171.508c-1.855,0-1.834-1.978-1.834-1.978A1.838,1.838,0,0,1,17,6.019a1.458,1.458,0,0,1,1.119.507V6.153h1.3Z" transform="translate(0 0)" fill="#3b3938"/>
        </g>
      </g>
    </g>
    <g id="그룹_321" data-name="그룹 321" transform="translate(-21706 -19718)">
      <circle id="타원_12-2" data-name="타원 12" cx="17" cy="17" r="17" transform="translate(1007 4991)" fill="#fff"/>
      <g id="그룹_78" data-name="그룹 78" transform="translate(1015 4998.178)">
        <g id="그룹_77" data-name="그룹 77" clip-path="url(#clip-path-5)">
          <path id="패스_108" data-name="패스 108" d="M31.863,5.9h4.2A5.324,5.324,0,0,0,41.393.577V.189A.19.19,0,0,0,41.2,0H37a5.324,5.324,0,0,0-5.324,5.324v.388a.19.19,0,0,0,.19.19" transform="translate(-27.733 0.001)" fill="#3b3938"/>
          <path id="패스_109" data-name="패스 109" d="M16.042,60.27c-.107,0-.213.005-.318.014V60.27H.281A.28.28,0,0,0,0,60.55v4.283a7.584,7.584,0,0,0,7.585,7.584h.555a7.584,7.584,0,0,0,7.042-4.772h.86a3.688,3.688,0,1,0,0-7.376m.038,5.259a1.577,1.577,0,0,1-.386-.05c.018-.213.029-.428.029-.646v-2.41a1.573,1.573,0,1,1,.356,3.106" transform="translate(0 -52.772)" fill="#3b3938"/>
        </g>
      </g>
    </g>
    <g id="그룹_322" data-name="그룹 322" transform="translate(-21716 -19718)">
      <circle id="타원_12-3" data-name="타원 12" cx="17" cy="17" r="17" transform="translate(1056 4991)" fill="#fff"/>
      <g id="그룹_80" data-name="그룹 80" transform="translate(1062.039 4999.606)">
        <g id="그룹_79" data-name="그룹 79" transform="translate(0 0)" clip-path="url(#clip-path-6)">
          <path id="패스_110" data-name="패스 110" d="M21.312,5.828a8.385,8.385,0,0,0-2.848-3.475,12.23,12.23,0,0,0-6.292-2.3,13.548,13.548,0,0,0-3.647.16A12.162,12.162,0,0,0,4,1.97,9.071,9.071,0,0,0,.881,5.246a6.919,6.919,0,0,0-.8,4.468,7.424,7.424,0,0,0,1.7,3.655,10.086,10.086,0,0,0,3.25,2.538c.083.042.091.08.068.161q-.4,1.373-.786,2.747c-.1.363-.214.724-.293,1.093-.045.21.08.335.291.306a.523.523,0,0,0,.19-.065c.166-.094.334-.185.495-.287,1.325-.839,2.606-1.741,3.889-2.641a.334.334,0,0,1,.259-.063,13.021,13.021,0,0,0,1.948.118,13.561,13.561,0,0,0,2.134-.186,12.348,12.348,0,0,0,4.194-1.481,9.26,9.26,0,0,0,3.359-3.161,6.892,6.892,0,0,0,.525-6.619M5.641,7.293c-.092,0-.11.029-.11.114q0,1.791,0,3.582a.617.617,0,0,1-.434.636.628.628,0,0,1-.832-.6c0-.6,0-1.205,0-1.808s0-1.2,0-1.8c0-.094-.016-.129-.121-.126-.28.008-.561,0-.842,0A.618.618,0,1,1,3.3,6.059q1.6-.005,3.2,0a.619.619,0,0,1,.173,1.218.716.716,0,0,1-.189.018c-.281,0-.561,0-.842,0m5.43,3.916a.4.4,0,0,1-.277.372.969.969,0,0,1-.4.066.517.517,0,0,1-.524-.375c-.066-.214-.161-.418-.236-.629a.117.117,0,0,0-.134-.1c-.288.006-.577,0-.865,0s-.584,0-.876,0a.106.106,0,0,0-.121.082c-.074.207-.156.412-.235.618a.565.565,0,0,1-.684.394c-.442-.065-.595-.29-.5-.743a5.492,5.492,0,0,1,.283-.814Q7.145,8.391,7.79,6.7A.927.927,0,0,1,8.5,6.078a.9.9,0,0,1,.975.59c.238.617.471,1.236.706,1.853q.4,1.042.792,2.084a1.344,1.344,0,0,1,.1.6m3.018.349q-1.067.013-2.134,0a.573.573,0,0,1-.55-.583c0-.715,0-1.43,0-2.145s0-1.423,0-2.134a.633.633,0,0,1,.581-.632.647.647,0,0,1,.687.475.878.878,0,0,1,.019.234q0,1.758,0,3.516c0,.1.026.124.124.123q.618-.009,1.236,0a.586.586,0,0,1,.592.544.576.576,0,0,1-.552.6m4.692-.087a.628.628,0,0,1-.931-.1c-.44-.577-.876-1.158-1.314-1.738A.328.328,0,0,0,16.5,9.59c-.051-.05-.066-.147-.146-.152-.062,0-.206.22-.206.294,0,.435,0,.869,0,1.3a.619.619,0,0,1-.521.6.629.629,0,0,1-.681-.361A.647.647,0,0,1,14.888,11q0-2.152,0-4.3a.63.63,0,1,1,1.26,0c0,.412,0,.824,0,1.236v.087l.038.026a.729.729,0,0,1,.072-.1q.809-.812,1.62-1.621a.532.532,0,0,1,.695-.088.615.615,0,0,1,.291.682.568.568,0,0,1-.158.241c-.443.442-.883.886-1.329,1.325-.062.061-.059.1-.009.162q.741.974,1.475,1.953a.632.632,0,0,1-.065.872" transform="translate(0 0)" fill="#3b3938"/>
          <path id="패스_111" data-name="패스 111" d="M35.634,33.783c-.16.454-.319.909-.482,1.362-.027.075-.015.1.065.092.123-.006.247,0,.371,0h.8l-.631-1.792-.119.339" transform="translate(-27.115 -25.807)" fill="#3b3938"/>
        </g>
      </g>
    </g>
  </g>
</svg>
